<svg width="233" height="76" viewBox="0 0 233 76" fill="none" xmlns="http://www.w3.org/2000/svg" class="h-10 w-auto"><path d="M90.448 51V25.8H100.564C103.18 25.8 105.172 26.412 106.54 27.636C107.932 28.836 108.628 30.384 108.628 32.28C108.628 33.864 108.196 35.136 107.332 36.096C106.492 37.032 105.46 37.668 104.236 38.004C105.676 38.292 106.864 39.012 107.8 40.164C108.736 41.292 109.204 42.612 109.204 44.124C109.204 46.116 108.484 47.76 107.044 49.056C105.604 50.352 103.564 51 100.924 51H90.448ZM95.056 36.384H99.88C101.176 36.384 102.172 36.084 102.868 35.484C103.564 34.884 103.912 34.032 103.912 32.928C103.912 31.872 103.564 31.044 102.868 30.444C102.196 29.82 101.176 29.508 99.808 29.508H95.056V36.384ZM95.056 47.256H100.204C101.572 47.256 102.628 46.944 103.372 46.32C104.14 45.672 104.524 44.772 104.524 43.62C104.524 42.444 104.128 41.52 103.336 40.848C102.544 40.176 101.476 39.84 100.132 39.84H95.056V47.256ZM112.719 51V25.8H117.327V51H112.719ZM121.771 51V25.8H126.379L138.223 43.548V25.8H142.831V51H138.223L126.379 33.288V51H121.771ZM159.084 51.432C156.564 51.432 154.356 50.88 152.46 49.776C150.588 48.672 149.112 47.148 148.032 45.204C146.976 43.236 146.448 40.968 146.448 38.4C146.448 35.832 146.976 33.576 148.032 31.632C149.112 29.664 150.588 28.128 152.46 27.024C154.356 25.92 156.564 25.368 159.084 25.368C161.58 25.368 163.776 25.92 165.672 27.024C167.568 28.128 169.044 29.664 170.1 31.632C171.156 33.576 171.684 35.832 171.684 38.4C171.684 40.968 171.156 43.236 170.1 45.204C169.044 47.148 167.568 48.672 165.672 49.776C163.776 50.88 161.58 51.432 159.084 51.432ZM159.084 47.292C161.484 47.292 163.392 46.5 164.808 44.916C166.248 43.332 166.968 41.16 166.968 38.4C166.968 35.64 166.248 33.468 164.808 31.884C163.392 30.3 161.484 29.508 159.084 29.508C156.684 29.508 154.764 30.3 153.324 31.884C151.884 33.468 151.164 35.64 151.164 38.4C151.164 41.16 151.884 43.332 153.324 44.916C154.764 46.5 156.684 47.292 159.084 47.292ZM186.725 51.432C184.181 51.432 181.997 50.892 180.173 49.812C178.349 48.708 176.945 47.184 175.961 45.24C174.977 43.272 174.485 41.004 174.485 38.436C174.485 35.868 174.977 33.6 175.961 31.632C176.945 29.664 178.349 28.128 180.173 27.024C181.997 25.92 184.181 25.368 186.725 25.368C189.749 25.368 192.221 26.124 194.141 27.636C196.085 29.124 197.297 31.224 197.777 33.936H192.701C192.389 32.568 191.717 31.5 190.685 30.732C189.677 29.94 188.333 29.544 186.653 29.544C184.325 29.544 182.501 30.336 181.181 31.92C179.861 33.504 179.201 35.676 179.201 38.436C179.201 41.196 179.861 43.368 181.181 44.952C182.501 46.512 184.325 47.292 186.653 47.292C188.333 47.292 189.677 46.932 190.685 46.212C191.717 45.468 192.389 44.448 192.701 43.152H197.777C197.297 45.744 196.085 47.772 194.141 49.236C192.221 50.7 189.749 51.432 186.725 51.432ZM210.02 51.432C208.172 51.432 206.54 51.12 205.124 50.496C203.708 49.848 202.592 48.936 201.776 47.76C200.96 46.56 200.54 45.108 200.516 43.404H205.376C205.424 44.58 205.844 45.576 206.636 46.392C207.452 47.184 208.568 47.58 209.984 47.58C211.208 47.58 212.18 47.292 212.9 46.716C213.62 46.116 213.98 45.324 213.98 44.34C213.98 43.308 213.656 42.504 213.008 41.928C212.384 41.352 211.544 40.884 210.488 40.524C209.432 40.164 208.304 39.78 207.104 39.372C205.16 38.7 203.672 37.836 202.64 36.78C201.632 35.724 201.128 34.32 201.128 32.568C201.104 31.08 201.452 29.808 202.172 28.752C202.916 27.672 203.924 26.844 205.196 26.268C206.468 25.668 207.932 25.368 209.588 25.368C211.268 25.368 212.744 25.668 214.016 26.268C215.312 26.868 216.32 27.708 217.04 28.788C217.784 29.868 218.18 31.152 218.228 32.64H213.296C213.272 31.752 212.924 30.972 212.252 30.3C211.604 29.604 210.692 29.256 209.516 29.256C208.508 29.232 207.656 29.484 206.96 30.012C206.288 30.516 205.952 31.26 205.952 32.244C205.952 33.084 206.216 33.756 206.744 34.26C207.272 34.74 207.992 35.148 208.904 35.484C209.816 35.82 210.86 36.18 212.036 36.564C213.284 36.996 214.424 37.5 215.456 38.076C216.488 38.652 217.316 39.42 217.94 40.38C218.564 41.316 218.876 42.528 218.876 44.016C218.876 45.336 218.54 46.56 217.868 47.688C217.196 48.816 216.2 49.728 214.88 50.424C213.56 51.096 211.94 51.432 210.02 51.432Z" fill="#16191D"></path><path d="M34.7282 25.9853C35.0474 25.9853 35.3666 25.9853 35.8454 25.9853C43.5062 25.9853 49.8903 31.4338 49.8903 38.2794C49.8903 43.3088 46.3791 47.7794 41.2718 49.5956C40.9526 49.5956 40.793 49.5956 40.4738 49.5956C32.813 49.5956 26.4289 44.1471 26.4289 37.3015C26.4289 32.2721 29.7805 27.9412 34.7282 25.9853L6 26.125C6 43.1691 21.8005 57 41.2718 57L41.2718 49.875L70 49.875C70 32.8309 54.1995 19 34.7282 19L34.7282 25.9853Z" fill="#16B943"></path></svg>